<svg xmlns:xlink="http://www.w3.org/1999/xlink" xmlns="http://www.w3.org/2000/svg" width="125" height="20" viewBox="0 0 370.00000000000006 84.0008395469651" class="looka-1j8o68f"><defs id="SvgjsDefs1207"></defs><g id="SvgjsG1208" featurekey="Df7oLJ-0" transform="matrix(1.0500104943370636,0,0,1.0500104943370636,-17.500524716853175,-10.500104943370637)" fill="#53354A"><path xmlns="http://www.w3.org/2000/svg" d="M16.667,43.33C16.667,69.104,37.559,90,63.333,90v-6.667c-22.093,0-40-17.91-40-40.003H16.667z" fill="#53354A"></path><path xmlns="http://www.w3.org/2000/svg" d="M63.333,16.667c-14.729,0-26.666,11.94-26.666,26.664C36.667,58.06,48.604,70,63.333,70v6.667  C44.922,76.667,30,61.741,30,43.33C30,24.922,44.922,10,63.333,10V16.667z" fill="#53354A"></path><path xmlns="http://www.w3.org/2000/svg" d="M63.333,43.333v20c-11.048,0-20-8.955-20-20.003c0-11.045,8.952-19.997,20-19.997c11.049,0,20,8.952,20,19.997  L63.333,43.333z" fill="#53354A"></path></g><g id="SvgjsG1209" featurekey="Ua4uQk-0" transform="matrix(2.213691070684718,0,0,2.213691070684718,88.4504156171786,9.249139981752508)" fill="#53354A"><path d="M5.86 5.76 c2.52 0 4.06 1.56 4.82 2.88 l-2.36 1.42 c-0.78 -1 -1.46 -1.46 -2.46 -1.46 c-0.86 0 -1.5 0.5 -1.5 1.2 c0 0.72 0.4 1.08 1.4 1.42 l0.94 0.34 c3.26 1.14 4.38 2.58 4.38 4.44 c0 2.92 -2.76 4.3 -5.16 4.3 c-2.56 0 -4.52 -1.52 -5.22 -3.46 l2.46 -1.32 c0.5 0.9 1.24 1.88 2.76 1.88 c1.04 0 1.82 -0.42 1.82 -1.36 c0 -0.86 -0.48 -1.26 -1.98 -1.82 l-0.8 -0.28 c-2.06 -0.74 -3.8 -1.72 -3.8 -4.28 c0 -2.28 2.16 -3.9 4.7 -3.9 z M21.240000000000002 9.56 l3.14 0 l-6.36 14.24 l-3.16 0 l1.92 -4.16 l-4.5 -10.08 l3.14 0 l2.92 6.68 z M32.08 9.44 c1.94 0 3.92 1.3 3.92 4.6 l0 5.96 l-3.16 0 l0 -5.74 c0 -1.58 -0.54 -2.08 -1.54 -2.08 c-1.42 0 -2.24 1.38 -2.44 1.98 l0 5.84 l-3.16 0 l0 -10.4 l3.16 0 l0 1.8 c0.2 -0.5 1.26 -1.96 3.22 -1.96 z M43.04 9.42 c1.9 0 3.5 0.8 4.48 2.48 l-2.4 1.14 c-0.52 -0.44 -0.94 -0.84 -2.04 -0.84 c-1.2 0 -2.42 0.92 -2.42 2.62 c0 1.68 1.22 2.56 2.42 2.56 c1.1 0 1.52 -0.36 2.04 -0.8 l2.44 1.14 c-1.02 1.68 -2.58 2.44 -4.52 2.44 c-2.32 0 -5.44 -1.66 -5.44 -5.34 c0 -3.62 3.12 -5.4 5.44 -5.4 z M64.46 6 l0 14 l-3.32 0 l0 -6.76 l-2.86 6.76 l-2.78 0 l-2.82 -6.72 l0 6.72 l-3.32 0 l0 -14 l3.18 0 l4.38 9.72 l4.36 -9.72 l3.18 0 z M74.16 9.6 l3.16 0 l0 10.4 l-3.16 0 l0 -1.04 c-0.14 0.36 -1.08 1.24 -2.68 1.24 c-2.38 0 -5.12 -1.7 -5.12 -5.42 c0 -3.58 2.74 -5.36 5.12 -5.36 c1.6 0 2.54 0.92 2.68 1.14 l0 -0.96 z M71.94 17.42 c1.3 0 2.36 -0.9 2.36 -2.64 c0 -1.68 -1.06 -2.58 -2.36 -2.58 c-1.36 0 -2.52 0.92 -2.52 2.58 c0 1.72 1.16 2.64 2.52 2.64 z M85.74000000000001 9.44 c1.94 0 3.92 1.3 3.92 4.6 l0 5.96 l-3.16 0 l0 -5.74 c0 -1.58 -0.54 -2.08 -1.54 -2.08 c-1.42 0 -2.24 1.38 -2.44 1.98 l0 5.84 l-3.16 0 l0 -10.4 l3.16 0 l0 1.8 c0.2 -0.5 1.26 -1.96 3.22 -1.96 z M99.06 9.6 l3.16 0 l0 10.4 l-3.16 0 l0 -1.04 c-0.14 0.36 -1.08 1.24 -2.68 1.24 c-2.38 0 -5.12 -1.7 -5.12 -5.42 c0 -3.58 2.74 -5.36 5.12 -5.36 c1.6 0 2.54 0.92 2.68 1.14 l0 -0.96 z M96.84 17.42 c1.3 0 2.36 -0.9 2.36 -2.64 c0 -1.68 -1.06 -2.58 -2.36 -2.58 c-1.36 0 -2.52 0.92 -2.52 2.58 c0 1.72 1.16 2.64 2.52 2.64 z M111.74000000000001 9.6 l3.16 0 l0 10.4 c0 3.16 -3.2 4.12 -5.52 4.12 c-1.1 0 -2.1 -0.18 -2.74 -0.52 l0 -2.58 c0.64 0.34 1.6 0.48 2.74 0.48 c1.86 0 2.36 -0.96 2.36 -1.5 l0 -1.04 c-0.14 0.36 -1.08 1.24 -2.68 1.24 c-2.38 0 -5.12 -1.7 -5.12 -5.42 c0 -3.58 2.74 -5.36 5.12 -5.36 c1.6 0 2.54 0.92 2.68 1.14 l0 -0.96 z M109.52000000000001 17.42 c1.3 0 2.36 -0.9 2.36 -2.64 c0 -1.68 -1.06 -2.58 -2.36 -2.58 c-1.36 0 -2.52 0.92 -2.52 2.58 c0 1.72 1.16 2.64 2.52 2.64 z M122.10000000000002 9.42 c2.36 0 5.66 1.78 5 6.48 l-7.26 0 c0.36 1.08 1.3 1.64 2.56 1.64 c1.28 0 1.68 -0.28 2.4 -0.58 l1.74 1.68 c-0.92 0.9 -2.16 1.56 -4.26 1.56 c-2.58 0 -5.66 -1.78 -5.66 -5.36 c0 -3.64 3.12 -5.42 5.48 -5.42 z M122.10000000000002 12.120000000000001 c-0.9 0 -1.82 0.52 -2.22 1.56 l4.42 0 c-0.32 -1.04 -1.3 -1.56 -2.2 -1.56 z" fill="#53354A"></path></g></svg>